<svg xmlns="http://www.w3.org/2000/svg" xmlns:xlink="http://www.w3.org/1999/xlink" viewBox="0 0 426.9 544.4"><defs><path id="a" d="M22.4 48h382v448.3h-382z"/></defs><clipPath id="b"><use xlink:href="#a" overflow="visible"/></clipPath><path d="M314 266.6c-4.4-13-22-45.7-35.8-64.1-3-4-1.9-6.1-.3-7.4 1.6-1.3 6.7-5.7 12.8-12.7 6.2-7 7.6-15 3.3-26.5-4.3-11.4-18.6-38.5-21.6-47.5-3.4-10.3-3.8-14.9-1.7-20.6 2.4-6.6 6-6.9 8.7-6.9 1.4 0 2.5 1.5 2.5 2.2.1 2.9.2 6.5 3.1 14.1 4.6 12 16.3 19.9 19.9 21.5 2.6 1.1 3-.9 2.8-1.8-.2-1-4-15.9-6.9-27.1-3-11.8-4.5-14.3-7.1-16.8-4.2-4-10.7-6.2-16.1-6-12.1.5-17.5 12.2-18.2 13.3-.6 1-.8 1.7-2 .8-3.5-2.4-13.6-10.9-14.5-16.2-.5-3.1-1.1-3.6-4.2-4.8-12.2-4.8-22.8-8.9-34.4-11-4.7-.8-4.9-1.2-10.4-.2-9.3 1.7-15 3.9-22 7.5-3.8 2-4.3 3.4-5 4.4-.6.8-1.2 1.7-2.6 2.1-2.3.8-10.9 4-13.9 5.7-1.8 1.1-2.8 2.2-1.9 4.3 1.7 3.7 6.6 11.3 8.8 13.3 1.3 1.2 4.6 2 5.4 2.1.8.2 1.3.4 1.6-.2.3-.6.4-1.6 2-2.7 2.3-1.6 6.6-2.7 8.9-2.9 1.8-.1 2.8-.2 3.7.4.9.7 3 2.9 3.7 5.1.7 2.2.3 3.1-1 3.6-1.2.5-5 1.4-9.3 1.7-4.3.4-5.5-.8-5.8-1.1-.2-.2-.8-.6-1.2 0-.7 1-1.8 1.7-3.5 2.5-1 .5-1.5 1.5-.6 3.1 2.8 4.8 6.4 10.1 9.7 11.1 2.7.8 4.1 0 7.1-2.2 2.7-1.9 4.4-1.9 5.2-1.4.8.6 2.4 2 2 3.4-.7 2.4-5.5 8.1-6.4 9.2-.9 1.1-1.7 1.7-3.2 1-2.3-1.1-36.8-19-41.4-20.8-5-1.9-8.3-2.4-13.3-2.6-4-.2-9.3.2-12.7.8-2.4.5-3.8 1.6-6.1 3.7-3.1 2.9-6.4 6.6-6.7 9.7-.2 2.2 2.2 6.7 2.5 7.1.3.3.7 1 2.1.8 1.4-.2 4.8-1.9 8.9-1.2 3.7.6 4.1 3.5 4.3 5.8 0 .4.5 1.2 1.5 1.2 1.5 0 3.8 0 6.4 1.3 3.3 1.6 9.8 6.6 10.8 7.7.8.9.8 1.7-.8 1.9-8.2.7-20.8 3.2-26.6 5.1-4.1 1.3-9 3.2-10.7 6.2-1.9 3.4-4.4 8.8-5.1 12.7-.7 3.9 3.4 8.6 4.5 9.7.7.7 1.2 1.2 2.6.5 2-1.2 6.9-4.2 11.5-4.4 2.8-.2 4 2.5 4.6 3.5.7 1 1.3.3 3.9-.4 4.5-1.2 29.5-.8 38.4-.3 4 .2 9.7.8 13.8 3.1 4.1 2.3 11.6 9.3 11.6 9.3s-9.9 16.6-15.2 26.4c-4.9 9.1-8.5 15.9-10.3 19.9-1.6 3.6-3 8.7-2.7 12.8.4 5.9.6 8.9.5 11.6-.1 2.4-2.3 2.6-5.4 3.4-4.3 1.1-12.8 1.9-19.8 3.6-6.3 1.6-8.7 3.1-9.8 7.9-.9 3.8-2.2 13.2-2.3 17.6-.1 1.8-.1 2.6 2.1 2.2 1.3-.2 5-.8 9.7-1.1 5.8-.5 12.2-.4 17.1-.4 9-.1 35.6 1.5 37.4 1.7 2.3.2 2.7-.1 2.6-1.6-.2-2.1-.6-8.8-.7-12.8-.1-4-.7-8.1 2.9-11.9 3.6-3.9 30.7-34.1 32.2-35.7 1.3-1.3 2.2-2.7 4.2-.9 2 1.9 24.3 18 28.9 21.2 4.5 3.3 8.7 4.4 13.9 4.5 3.7.1 4.7 6.5 1.6 7.1-3.2.6-8.1 1.6-11.5 2.4-5.3 1.2-6.9 3-8.5 6.5-1.4 3-2.8 17.8-2.9 19 0 .9-.1 2.3 1.4 1.9 6.5-1.3 16.8-1.7 27.9-1.3 12.7.4 25 1.4 26.7 1.5 1.9.1 2-.1 3-1.6 1.6-2.5 6.4-8 10.5-11.4 1.7-2 1.7-2.7.9-5.2m-48.7-89.3c-3.2 1.1-5.3.1-6.9-1.4-1.6-1.5-14.4-16.9-18.5-21.6-2.1-2.4-3.6-7.8 2.6-10.1 5.1-1.9 14.3-4.8 16.8-6.1 2.5-1.3 3.9-2.7 4.1-5.3.2-2.6.2-5.6.2-6.5 0-1 1.3-1.8 2-.6.4.8 2.7 5.3 5.5 10.5 4.2 7.8 9.5 17.5 11.2 21.7 1.6 4 .8 7-1.6 10.1-3.3 4-13.1 8.6-15.4 9.3" clip-path="url(#b)"/><defs><path id="c" d="M278.4 69.6c-10-.1-20.1 11.5-18.2 28.8 1.2 10.6 2.8 15.4 5.9 22.2 1.6 3.4 18.6 35.8 19.4 39.2 1.1 4.9.1 8-3.6 11.4-4.2 3.8-11.1 8-15.7 9.6-1.1.4-2.1.6-3 .6-1.1 0-3.7-.4-8.7-6.5l22 29.4c-2.8-3.8-4.3-6.6-3.8-9.1s4.5-5.1 9.1-8.8c4.6-3.6 9.7-8.1 12.1-14.3.7-1.7 1-3.6 1-5.5 0-5.9-2.8-12.5-6.3-19.7-4.4-9.3-16.9-29.7-20.7-43.9-.9-3.5-1.3-6.7-1.3-9.4 0-8.1 3.4-13.2 7.7-15 2-.8 3.8-1.1 5.3-1.1 2.3 0 3.9.6 4.6 1 1.2.7 1.3 2.1 1.3 3.2v2c0 3.3.4 10.6 4.3 17.7 4.9 9 13.1 14 16.3 15.4.3.1-7.6-28.9-9-34.4-1.6-6.4-6.1-12.8-18.7-12.9.1.1 0 .1 0 .1"/></defs><clipPath id="d"><use xlink:href="#c" overflow="visible"/></clipPath><linearGradient id="e" gradientUnits="userSpaceOnUse" x1="-1536.108" y1="3226.26" x2="-1535.108" y2="3226.26" gradientTransform="matrix(-70.4346 107.8785 107.8785 70.4347 -455924.25 -61443.871)"><stop offset="0" stop-color="#d9dada"/><stop offset=".203" stop-color="#d9dada"/><stop offset=".204" stop-color="#d7d8d8"/><stop offset=".243" stop-color="#a9aaaa"/><stop offset=".28" stop-color="#858685"/><stop offset=".314" stop-color="#6b6b6b"/><stop offset=".344" stop-color="#5c5c5b"/><stop offset=".368" stop-color="#565655"/><stop offset=".441" stop-color="#5d5d5c"/><stop offset=".548" stop-color="#707070"/><stop offset=".676" stop-color="#909090"/><stop offset=".813" stop-color="#b9baba"/><stop offset=".835" stop-color="#b3b4b4"/><stop offset=".863" stop-color="#a3a4a4"/><stop offset=".895" stop-color="#898a8a"/><stop offset=".929" stop-color="#646565"/><stop offset=".965" stop-color="#363636"/><stop offset="1"/></linearGradient><path clip-path="url(#d)" fill="url(#e)" d="M368.1 109.8L290.9 228l-98.1-64L270 45.7z"/><defs><path id="f" d="M141.4 134.1c1.9 1.9-1.4 1.8-11.6 2.7-10.3.9-20.7 3-26.2 5-4 1.5-6.4 2.6-8 6.2 0 0-3.3 7.2-3.8 10-.2 1.3-.1 2.1.6 3.2.4.6 1.3-18.7 26.3-20 22.1-1.1 27.5-3.4 23.2-7.7l-.5.6z"/></defs><clipPath id="g"><use xlink:href="#f" overflow="visible"/></clipPath><linearGradient id="h" gradientUnits="userSpaceOnUse" x1="-1534.505" y1="3227.152" x2="-1533.505" y2="3227.152" gradientTransform="scale(31.8925 -31.8925) rotate(66.413 1703.544 2786.006)"><stop offset="0" stop-color="#bbbcbc"/><stop offset=".031" stop-color="#bbbcbc"/><stop offset=".2" stop-color="#bbbcbc"/><stop offset=".532" stop-color="#9d9e9e"/><stop offset=".99" stop-color="#6e6e6e"/><stop offset="1" stop-color="#6e6e6e"/></linearGradient><path clip-path="url(#g)" fill="url(#h)" d="M81.3 157.4l19.1-43.8 56.3 24.6-19.1 43.7z"/><defs><path id="i" d="M279.5 78.5c-1.4 0-3 .2-4.8 1-3.5 1.4-6.7 5.8-6.8 13.2v1.7s.5-5.1 1.4-7.4c2.2-6.4 6.3-7.8 9.2-7.8 1.9 0 2.8.5 3.6 1.3.6.7 1 1.3 1.1 2.3.1 2.9.2 6.2 3 13.6.2.5.3.9.5 1.3-2.4-6-2.7-11.6-2.7-14.5v-2c.1-2.1-2.3-2.7-4.5-2.7z"/></defs><clipPath id="j"><use xlink:href="#i" overflow="visible"/></clipPath><linearGradient id="k" gradientUnits="userSpaceOnUse" x1="-1535.195" y1="3223.492" x2="-1534.195" y2="3223.492" gradientTransform="scale(-15.7937 15.7937) rotate(-5.404 -34869.01 -14458.153)"><stop offset="0" stop-color="#565655"/><stop offset=".197" stop-color="#565655"/><stop offset=".258" stop-color="#585857"/><stop offset=".282" stop-color="#5f5f5e"/><stop offset=".299" stop-color="#6b6b6a"/><stop offset=".314" stop-color="#7c7c7b"/><stop offset=".326" stop-color="#939392"/><stop offset=".337" stop-color="#aeaeae"/><stop offset=".347" stop-color="#cfcfcf"/><stop offset=".356" stop-color="#f4f4f4"/><stop offset=".359" stop-color="#fff"/><stop offset=".438" stop-color="#e8e8e8"/><stop offset=".607" stop-color="#acacab"/><stop offset=".824" stop-color="#565655"/><stop offset="1" stop-color="#3a3a39"/></linearGradient><path clip-path="url(#j)" fill="url(#k)" d="M286.5 99.5l-20.4-2 1.9-20.8 20.5 1.9z"/><defs><path id="l" d="M142.3 134.9c.8 2-2.2 1.6-12.4 2.4-10.3.9-20.8 2.9-26.2 4.9-4 1.5-6.4 2.6-8 6.2 0 0-3.3 7.2-3.8 10-.2 1.3.1 2.1.8 3.2 1.1 1.7 1.7 2 3.3 1.1 1.3-.7 6.8-3.8 10.4-3.9 3.3-.1 4.8 1.9 5.2 3.7.3 1.1 1.8.5 2 .5 1.4-.4 2.9-.8 8-1.2 6.1-.5 30.1-.2 38.9 0 7.9.2 39 24.6 39.5 24.7l1.6-3.2c-10.6-8.7-49.8-39.9-59.3-49.2v.8z"/></defs><clipPath id="m"><use xlink:href="#l" overflow="visible"/></clipPath><linearGradient id="n" gradientUnits="userSpaceOnUse" x1="-1534.523" y1="3227.322" x2="-1533.523" y2="3227.322" gradientTransform="scale(32.3268 -32.3268) rotate(66.413 1704.321 2786.544)"><stop offset="0" stop-color="#d9dada"/><stop offset=".079" stop-color="#cfd0d0"/><stop offset=".237" stop-color="#c0c1c1"/><stop offset=".368" stop-color="#bbbcbc"/><stop offset=".44" stop-color="#b5b6b6"/><stop offset=".533" stop-color="#a5a6a6"/><stop offset=".638" stop-color="#8b8c8c"/><stop offset=".75" stop-color="#666767"/><stop offset=".87" stop-color="#373838"/><stop offset=".99"/><stop offset="1"/></linearGradient><path clip-path="url(#m)" fill="url(#n)" d="M72.5 178.3l36.8-84.2 111.5 48.6L184 227z"/><defs><path id="o" d="M110.8 98.8c-2 .2-3.3.3-5.3 2.3-2 1.9-5.5 4.4-6.9 7-.5 1-.8 1.7-.7 2.6.2 1.3.8 2.6 1.1 3 .4.4.9.7 1.9.4 2.1-.6 5.8-1.1 8.1-1 1.6 0 3.9.4 5 1.6 1.4 1.7 1.3 3 1.4 3.7 0 .3.1.9.8 1 1.4.2 2.9.2 4.6.6 4.6 1 10.8 4.9 16.5 10.2 11.2 10.3 25.1 25.7 38.4 36.4 6.7 5.4 17.8 12.1 21.4 15.7.7.7-.8 1.2-1.9.6-.5-.3-6.8-5.2-8.2-5.5-1.2-.3-2.4 0-3.6 1.7-10.4 14.4-22.5 38.7-27.4 50.1-1.1 2.7-2.1 6.2-2 9.2.2 3.1.5 9.3.5 12.2 0 2.8-.7 4-4 4.5-6.2 1-20 3.4-23.5 4.3-2.6.6-4.9 1.8-5.9 4.9-1.5 4.4-2.6 11.3-2.8 13-.1 1 .3 1.7 1.5 1.4 5.1-1.3 12.9-2.3 23.6-2.1 10.8.2 30 2.1 32.5 2.3.9.1 1.9.1 1.9-.9 0-1.2-.3-6.3-.4-13-.1-6.6 5.7-11.5 13.7-19.8 8-8.3 27.4-27.4 28.1-28.1.5-.5 1-.9 0-1.9-1.4-1.3-7.5-7.7-8.2-8.4-.4-.4-1.1-1.4-.8-1.7.3-.3 1 .2 2 1 3.7 3 44.6 36 47.5 37.2 2.9 1.3 4.7 1.7 7.3 2.1 2 .4 3.7 3.3 4 5.4.3 2.2.2 5-2.9 5.8-3 .7-10.4 2.1-13 2.8-2.6.7-4.4 1.9-5.5 4.9-1.1 3-2.6 11.3-2.6 12 0 1.8.4 2 1.8 1.6 1.7-.4 3.8-1 11.6-1.2 13.2-.5 33.2 1.2 35.8 1.4.9.1 1.6-.8 1.9-1.4 2.8-4.8 2-6 5.7-9.1 1.9-1.6 2.9-1.9 1.6-4.6-12.2-27.8-23.8-46.7-42.7-70.8-12.1-15.5-26.2-32.6-30.9-38.3L175 121.4c-3.4-1.6-29.6-15-34.2-17.3-4.5-2.2-8.2-4.1-12.8-5.1-3.2-.7-6.5-1-9.5-1-2.7.3-5.4.5-7.7.8"/></defs><clipPath id="p"><use xlink:href="#o" overflow="visible"/></clipPath><linearGradient id="q" gradientUnits="userSpaceOnUse" x1="-1535.703" y1="3226.244" x2="-1534.703" y2="3226.244" gradientTransform="scale(-329.6285 329.6285) rotate(-45.492 -4614.888 -216.844)"><stop offset="0" stop-color="#9c9c9c"/><stop offset=".077" stop-color="#9c9c9c"/><stop offset=".121" stop-color="#a7a7a8"/><stop offset=".17" stop-color="#868786"/><stop offset=".308" stop-color="#9c9c9c"/><stop offset=".369" stop-color="#bfbfbf"/><stop offset=".472" stop-color="#f6f6f6"/><stop offset=".698" stop-color="#f6f6f6"/><stop offset=".723" stop-color="#eaeaea"/><stop offset=".767" stop-color="#cbcbcb"/><stop offset=".827" stop-color="#989898"/><stop offset=".841" stop-color="#8b8b8b"/><stop offset=".962" stop-color="#565655"/><stop offset="1" stop-color="#565655"/></linearGradient><path clip-path="url(#p)" fill="url(#q)" d="M200.5 383.7L7.4 187.2 204.1-6.1l193.1 196.4z"/><defs><path id="r" d="M191.2 69.5c-4.6 0-10.2.8-17 2.7-8.2 2.2-18.6 6.5-19 6.7-.2.1-.2.3-.1.6.1.2 1.2 2.1 1.2 2.1s.5 1.3 2.1 2.2c1.6.9 3.1 1.3 3.5 1.3.4.1.6-.1.7-.3.1-.2 1.7-3.1 7.3-4.6 3.1-.8 5-.9 6-.9 1.5 0 3.8.8 5 2 2.1 2 3.9 5.4 4.2 7 .3 1.6.1 3.5-1.5 4.3-1.6.8-6.1 1.9-9 2.2-3 .3-5.9.1-7.6-.8-.3-.1-.5-.2-.7 0-.6.5-1 1-2.3 1.7-.3.2-.5.5-.2 1.1.3.5 3.9 6.5 6 8.1 2.2 1.6 3.3.9 5.9-.5 2.6-1.4 4.4-3.2 7-3.1 2.7.1 5 2.4 5.5 5.1.5 3.3-1.6 5.4-2.9 7.4-1.3 2-3.8 4.9-5.1 6.6-1.7 2.1-4.9 1.5-4.9 1.5s15.1 7.7 23.8 12.1c3.5 1.7 8.9.1 12.5-6.8.9-1.6 6.3-13.1 7.7-16.5 1.4-3.4 3.3-7.2.2-13.8-3.1-6.5-12.8-18.6-16.6-23.2-2-2.4-4.4-3.9-9.5-4.2-.6 0-1.2 0-1.8-.1h-.4z"/></defs><clipPath id="s"><use xlink:href="#r" overflow="visible"/></clipPath><radialGradient id="t" cx="-1535.92" cy="3227.363" r="1" gradientTransform="matrix(52.6946 0 0 -52.6945 81105.602 170173.719)" gradientUnits="userSpaceOnUse"><stop offset="0" stop-color="#fff"/><stop offset=".036" stop-color="#fff"/><stop offset=".467" stop-color="#fff"/><stop offset=".527" stop-color="#fbfbfb"/><stop offset=".587" stop-color="#efefef"/><stop offset=".646" stop-color="#dbdbdc"/><stop offset=".705" stop-color="silver"/><stop offset=".747" stop-color="#a7a7a8"/><stop offset=".846" stop-color="#868786"/><stop offset="1" stop-color="#565655"/></radialGradient><path clip-path="url(#s)" fill="url(#t)" d="M155 69.5h67.8v66.2H155z"/><defs><path id="u" d="M22.4 48h382v448.3h-382z"/></defs><clipPath id="v"><use xlink:href="#u" overflow="visible"/></clipPath><g opacity=".85" clip-path="url(#v)"><defs><path id="w" d="M163.9 93.3h19.5v12.2h-19.5z"/></defs><clipPath id="x"><use xlink:href="#w" overflow="visible"/></clipPath><g clip-path="url(#x)"><defs><path id="y" d="M174.6 95.3c-2.9.3-5.7.1-7.4-.8-.3-.1-.5-.2-.7 0-.6.5-1 .9-2.3 1.6-.2.1-.3.3-.3.5v.1c0 .1 0 .3.1.4.3.5 3.5 5.9 5.7 7.5 2.2 1.6 3.4.9 6-.5s4.4-3.1 7.2-3l.5-7.8c-1.5.7-6 1.7-8.8 2"/></defs><clipPath id="z"><use xlink:href="#y" overflow="visible"/></clipPath><radialGradient id="A" cx="-1536.106" cy="3229.132" r="1" gradientTransform="matrix(18.6 0 0 -17.923 28754.424 57974.387)" gradientUnits="userSpaceOnUse"><stop offset="0" stop-color="#fff"/><stop offset=".036" stop-color="#fff"/><stop offset=".228" stop-color="#fff"/><stop offset=".325" stop-color="#fbfbfb"/><stop offset=".422" stop-color="#efefef"/><stop offset=".519" stop-color="#dbdbdb"/><stop offset=".616" stop-color="#bfbfbf"/><stop offset=".713" stop-color="#9b9b9b"/><stop offset=".81" stop-color="#6e6e6e"/><stop offset=".905" stop-color="#3b3b3b"/><stop offset="1"/></radialGradient><path clip-path="url(#z)" fill="url(#A)" d="M163.9 93.3h19.5v12.9h-19.5z"/></g></g><g opacity=".85" clip-path="url(#v)"><defs><path id="B" d="M155.6 73.1H176v12h-20.4z"/></defs><clipPath id="C"><use xlink:href="#B" overflow="visible"/></clipPath><g clip-path="url(#C)"><defs><path id="D" d="M155.7 79.1c-.2.1-.2.6-.1.8.1.2 1.1 1.9 1.1 1.9s.5 1.2 2 2 2.7 1.2 3.1 1.3c.4.1.6-.1.7-.3.1-.2 1.7-3.1 7.3-4.6 3.1-.8 5-.9 6-.9l-2.2-6.3c-7.6 2.1-17.5 5.9-17.9 6.1"/></defs><clipPath id="E"><use xlink:href="#D" overflow="visible"/></clipPath><radialGradient id="F" cx="-1536.063" cy="3228.647" r="1" gradientTransform="matrix(21.8828 0 0 -21.8828 33784.465 70721.148)" gradientUnits="userSpaceOnUse"><stop offset="0" stop-color="#fff"/><stop offset=".231" stop-color="#fff"/><stop offset=".571" stop-color="#f7f8f8"/><stop offset=".599" stop-color="#f1f2f2"/><stop offset=".636" stop-color="#e0e1e1"/><stop offset=".678" stop-color="#c5c6c6"/><stop offset=".724" stop-color="#9f9f9f"/><stop offset=".773" stop-color="#6e6e6e"/><stop offset=".824" stop-color="#333"/><stop offset=".863"/><stop offset="1"/></radialGradient><path clip-path="url(#E)" fill="url(#F)" d="M155.5 73.1h20.4v12.1h-20.4z"/></g></g><g opacity=".85" clip-path="url(#v)"><defs><path id="G" d="M176.2 106.9h43v27.8h-43z"/></defs><clipPath id="H"><use xlink:href="#G" overflow="visible"/></clipPath><g clip-path="url(#H)"><defs><path id="I" d="M185.5 114.5c-1.3 2-3.8 4.9-5.1 6.6-1.7 2.1-4.1 1.2-4.1 1.2s14.3 7.3 23 11.7c3.5 1.7 8.7.6 12.3-6.3.9-1.6 6.3-13.1 7.7-16.5l-30.9-4.2c.4 3.1-1.7 5.5-2.9 7.5"/></defs><clipPath id="J"><use xlink:href="#I" overflow="visible"/></clipPath><radialGradient id="K" cx="-1535.891" cy="3227.104" r="1" gradientTransform="matrix(73.7024 0 0 -73.7024 113406.695 237957.438)" gradientUnits="userSpaceOnUse"><stop offset="0" stop-color="#fff"/><stop offset=".036" stop-color="#fff"/><stop offset=".253" stop-color="#fff"/><stop offset=".274" stop-color="#fbfbfb"/><stop offset=".295" stop-color="#efefef"/><stop offset=".316" stop-color="#dbdbdc"/><stop offset=".338" stop-color="#bfbfc0"/><stop offset=".346" stop-color="#b1b2b3"/><stop offset=".412" stop-color="#868786"/><stop offset=".472" stop-color="#565655"/><stop offset=".857" stop-color="#565655"/><stop offset="1" stop-color="#565655"/></radialGradient><path clip-path="url(#J)" fill="url(#K)" d="M176.2 106.9h43v28.8h-43z"/></g></g><g><defs><path id="L" d="M138.8 152.9c-3.7.2-12.3 1-14.7 1.6-2.4.6-6.3 3.8-6.9 4.3-.9.9-.9 1.7-.2 2 .6.2 1.8 0 2.8-.1 3-.3 11.2-.5 20.5-.5 4.8 0 10.1 0 14.2.1 4.3.1 7.4.1 7.6.1-3.6-3.9-6.6-8.6-7.8-8.7h-.1c-1.7 0-14.4 1.1-15.4 1.2"/></defs><clipPath id="M"><use xlink:href="#L" overflow="visible"/></clipPath><linearGradient id="N" gradientUnits="userSpaceOnUse" x1="-1535.992" y1="3225.111" x2="-1534.992" y2="3225.111" gradientTransform="scale(-37.1936 37.1936) rotate(14.036 12312.202 7836.074)"><stop offset="0" stop-color="#f6f6f6"/><stop offset=".258" stop-color="#c5c6c6"/><stop offset=".269" stop-color="#c9caca"/><stop offset=".333" stop-color="#dddede"/><stop offset=".406" stop-color="#ebebeb"/><stop offset=".496" stop-color="#f4f4f4"/><stop offset=".648" stop-color="#f6f6f6"/><stop offset=".896" stop-color="#fff"/><stop offset="1" stop-color="#fff"/></linearGradient><path clip-path="url(#M)" fill="url(#N)" d="M164.4 160.4L119 171.8l-4.9-19.6 45.4-11.3z"/></g><g><defs><path id="O" d="M22.4 48h382v448.3h-382z"/></defs><clipPath id="P"><use xlink:href="#O" overflow="visible"/></clipPath><path d="M116.9 160.9l.1-.2-.1.2c-.4-.1-.6-.5-.6-.8 0-.4.3-.9.7-1.4.6-.6 4.5-3.8 7-4.4 2.5-.6 11.1-1.4 14.8-1.6 1-.1 13.7-1.2 15.5-1.2h.1c.4 0 .8.4 1.3.9s1.1 1.2 1.8 2.1c1.4 1.7 3 3.8 4.8 5.8l.3.3h-.4-.2c-1.5 0-11.4-.2-20.3-.2h-1.3c-9.3 0-17.5.3-20.5.5-.7.1-1.4.2-2.1.2-.3-.1-.6-.1-.9-.2m.9-.2c.6 0 1.3-.1 2-.2 3-.3 11.2-.5 20.5-.5h1.3c8.6 0 18.1.2 20.1.2-2.6-2.9-4.9-6.1-6.3-7.6-.5-.5-.9-.8-1.1-.8h-.1c-1.7 0-14.4 1.1-15.5 1.2-3.7.2-12.3 1-14.7 1.6-2.3.5-6.3 3.8-6.8 4.3s-.6.9-.6 1.2c0 .2.1.4.4.5.2 0 .5.1.8.1" clip-path="url(#P)" fill="#8b8b8b"/></g><g><defs><path id="Q" d="M172.6 59.7c-3.2 1.9-3.4 4.3-5.6 5.6-2.2 1.3-7.4 2.5-12.8 4.9-3 1.3-3 1.5-2.3 3.2.3.7 2.2 4.2 3.2 4.2s2.2-.5 3.4-1c1.6-.6 12.3-4.8 20.7-6.6 9.4-2 19.6-2.2 23.2 1.6 5.5 5.8 15.1 18.8 18 24.5 2.9 5.6 2.6 8.3.7 14-1.8 5.3-8.4 19-10.4 21.9-2 2.9-4.3 4.4-10 2.1-6.1-2.5-28.6-14-33.5-16.5-3.3-1.7-17.2-8.7-27.7-14-3.9-1.9-7.1-3.4-10.6-4.2-7.7-2-16-1.1-19.9-.4-1.7.3-2.8 3.1-2.8 4.2.1.9 1.9.8 4.1.7 1.1-.1 2.4-.1 3.5 0 2.7.2 12.1 1.2 17.5 3.4 5.7 2.3 34.3 17.7 41.5 21.6 55 29.9 78.5 49.2 121 120.5 1.9 3.2 2.8 7.1-.2 8-4.4 1.3-22.5 4.7-28 6.5-4.6 1.5-5.2 1.9-5.9 4.2-.8 2.6-1.9 7.8-1.6 8.8.1.4-.2 1 .7 1 5.1 0 23.4 0 37.5 1.4 1.7.2 1.8.1 2.9-1.5 1.2-1.9 6.1-7.5 9.3-9.8 1.3-1 .4-2.9.2-3.5-4-10.1-15.4-32.1-31-55-15.3-22.5-41.2-53-44.8-58-3.5-5-4.9-10.5 2.4-12.8 4.8-1.5 16.2-3.9 20.9-5.2 4.6-1.3 4.9-2.7 5.3-6.3.4-3.8-.7-22.4-3-33.4-.5-2.3-2-4.2-3.9-5.5-1.6-1.1-7.9-6.6-11.4-10.6-4-4.6-5.8-8.9-6.5-12.2 0 0-.1-.7-.9-1.5-.3-.3-.5-.5-1-.7-6.9-4.2-31.1-10.9-36.1-11.3h-.9c-4.1-.2-15.1 1.6-25.2 7.7"/></defs><clipPath id="R"><use xlink:href="#Q" overflow="visible"/></clipPath><linearGradient id="S" gradientUnits="userSpaceOnUse" x1="-1535.974" y1="3226.463" x2="-1534.974" y2="3226.463" gradientTransform="scale(260.2242 -260.2242) rotate(-50.622 -4179.18 -11.364)"><stop offset="0" stop-color="#fff"/><stop offset=".069" stop-color="#e7e7e7"/><stop offset=".157" stop-color="#fff"/><stop offset=".203" stop-color="#fff"/><stop offset=".262" stop-color="#ebecec"/><stop offset=".33" stop-color="#d9dada"/><stop offset=".351" stop-color="#e6e6e6"/><stop offset=".387" stop-color="#f4f4f4"/><stop offset=".43" stop-color="#fcfdfd"/><stop offset=".502" stop-color="#fff"/><stop offset=".885" stop-color="#fff"/><stop offset=".98" stop-color="#c3c4c4"/><stop offset="1" stop-color="#c3c4c4"/></linearGradient><path clip-path="url(#R)" fill="url(#S)" d="M228-48l193.6 235.8-233.3 191.5L-5.3 143.4z"/></g><g><defs><path id="T" d="M107.6 104.3c1.7 0 5.7-.1 8.3.2 5.1.6 11.6 2 15.6 3.5 5.8 2.2 32.8 18.4 39.8 22.3 21.1 11.9 37.1 22.9 52.2 35.1 23 18.5 42.9 40 67.7 83.6 1 1.7 1.5 3 1.5 4.6.1 2.4-2 3.3-2.7 3.5-4.3 1.3-21.9 5.2-27.1 7-4.4 1.6-5.2 2.5-5.9 4.6-.2.9-1 5-1.9 6.1-.9 1.1-2.9 1.4-5.1 1.4-1.3 0-2 .1-1.8-1.4.1-1.5 1-5.5 1.5-7.7.5-2.3 1.5-4 3.5-5.3 2.1-1.3 9.4-2.5 13.5-3.5s4.3-2.9 4.2-6c0 3.3-1.1 4.1-5.2 5-4.2.9-11.2 1.8-13.5 3.4-2.2 1.5-3.1 3.7-3.5 5.3-1.4 5.8-2.4 10.1-2.2 11.5.1 1.3.6 1.5 2.1 1.3 1.4-.2 4.9-.7 10.2-.9 1.6 0 1.5-1.9 1.4-4 0-.8 0-3 .4-4.1.4-1.1 1.2-2.1 2.6-2.5 2.9-.9 19.3-5.3 27.6-7.8 3.6-1.1 5.2-2.2 4.8-5.5-.3-2.9-2.9-7.2-7.7-14.6-4.8-7.5-10.7-17.6-18.7-28.9-14.1-20-28-35.6-45.3-49.3-12.8-10.1-26.1-18.2-36-23.9-9.8-5.8-51.3-28.4-57.7-30.5-5.9-1.8-10.5-2.4-14.6-2.9-2.8-.3-5.2-.1-7.7-.1-2.4 0-1.5-1.9-1.2-2.7 0 .6-1.4 3.2.9 3.2"/></defs><clipPath id="U"><use xlink:href="#T" overflow="visible"/></clipPath><linearGradient id="V" gradientUnits="userSpaceOnUse" x1="-1535.977" y1="3226.573" x2="-1534.977" y2="3226.573" gradientTransform="scale(232.9707 -232.9707) rotate(-43.525 -4809.496 -311.297)"><stop offset="0" stop-color="#e3e3e3"/><stop offset=".071" stop-color="#c8c8c8"/><stop offset=".213" stop-color="#979797"/><stop offset=".339" stop-color="#747473"/><stop offset=".441" stop-color="#5e5e5d"/><stop offset=".507" stop-color="#565655"/><stop offset=".574" stop-color="#5c5c5b"/><stop offset=".663" stop-color="#6d6d6c"/><stop offset=".764" stop-color="#888"/><stop offset=".875" stop-color="#afafae"/><stop offset=".992" stop-color="#dfdfdf"/><stop offset="1" stop-color="#e3e3e3"/></linearGradient><path clip-path="url(#U)" fill="url(#V)" d="M195.8 5.8L385 185.5 205.7 374.3 16.5 194.6z"/></g><g><defs><path id="W" d="M183.2 179.1c-1.6 1.9-9.7 14.8-16.3 26.9-4.8 8.7-10.5 21.1-11.6 24.1-1 2.7-1.2 5.3-1.1 8.3.1 3.1.6 8 .8 11.6.2 3.4-.7 4.9-4.3 5.6-3 .5-19.1 3.2-23.1 4.2s-5.2 2.9-6 5.8c-.8 2.9-1.9 8.4-2 9.7 0 1.2.1 1.5 1.3 1.3 1.1-.2 3.6-.4 4.6-.4 1-.1.8-.8 1.1-1.9.3-1 .5-2.6 1.1-5.1.6-2.5 1.4-4.5 4.9-5.5 3.5-1 19.3-3.6 22-4.3 2.7-.7 4.4-1.9 4.7-4.6.3-2.7-.2-8.3-.3-12.9-.1-4.8-.1-7 2.6-12.2 5.2-10 21.6-33.8 32.6-47.5 0 0-1-.8-2.3-1.7-1.6-1.2-3.7-2.7-4.8-3-.4-.1-.7-.2-1-.2-1.2-.1-1.9.6-2.9 1.8"/></defs><clipPath id="X"><use xlink:href="#W" overflow="visible"/></clipPath><linearGradient id="Y" gradientUnits="userSpaceOnUse" x1="-1536.131" y1="3226.148" x2="-1535.131" y2="3226.148" gradientTransform="scale(-118.3944 118.3944) rotate(56.221 2249.385 3050.13)"><stop offset="0" stop-color="#cfd0d0"/><stop offset=".1" stop-color="#fff"/><stop offset=".349" stop-color="#f2f2f2"/><stop offset=".391" stop-color="#f6f6f6"/><stop offset=".538" stop-color="#fff"/><stop offset=".578" stop-color="#c6c6c6"/><stop offset=".625" stop-color="#8b8b8a"/><stop offset=".665" stop-color="#5f5f5e"/><stop offset=".696" stop-color="#444443"/><stop offset=".714" stop-color="#3a3a39"/><stop offset=".721" stop-color="#50504f"/><stop offset=".736" stop-color="#7e7e7d"/><stop offset=".752" stop-color="#a6a6a5"/><stop offset=".768" stop-color="#c6c6c6"/><stop offset=".785" stop-color="#dfdfdf"/><stop offset=".802" stop-color="#f1f1f1"/><stop offset=".821" stop-color="#fcfcfc"/><stop offset=".841" stop-color="#fff"/><stop offset=".852" stop-color="#fbfbfb"/><stop offset=".863" stop-color="#efefef"/><stop offset=".873" stop-color="#dcdcdb"/><stop offset=".884" stop-color="#c0c0bf"/><stop offset=".895" stop-color="#9c9c9c"/><stop offset=".905" stop-color="#717170"/><stop offset=".91" stop-color="#585857"/><stop offset=".945" stop-color="#585857"/><stop offset=".959" stop-color="#676867"/><stop offset="1" stop-color="#919291"/></linearGradient><path clip-path="url(#X)" fill="url(#Y)" d="M240.1 208l-69 103.2-97.5-65.1 69-103.3z"/></g><g><defs><path id="Z" d="M22.4 48h382v448.3h-382z"/></defs><clipPath id="aa"><use xlink:href="#Z" overflow="visible"/></clipPath><g clip-path="url(#aa)"><defs><path id="ab" d="M177.3 205.5h42.8v60.2h-42.8z"/></defs><clipPath id="ac"><use xlink:href="#ab" overflow="visible"/></clipPath><g clip-path="url(#ac)"><defs><path id="ad" d="M210.3 205.5c-.1.1-22 24.7-29.2 42.9-3 6.5-3.8 10.2-3.8 13.5 0 2.8.3 3.8.3 3.8-.1-2.9.9-5.5 2.7-8.1 2.4-3.5 6.2-7.1 10.8-11.8 8.1-8.4 27.7-27.6 28.4-28.3.2-.2.5-.5.5-.9v-.1c0-.3-.2-.7-.6-1.1-2-1.9-3-3.1-6-6.2-1.9-1.9-3.2-3-3.1-3.7z"/></defs><clipPath id="ae"><use xlink:href="#ad" overflow="visible"/></clipPath><linearGradient id="af" gradientUnits="userSpaceOnUse" x1="-1537.256" y1="3228.49" x2="-1536.256" y2="3228.49" gradientTransform="scale(20.165 -20.165) rotate(-30.5 -6705.781 -1227.826)"><stop offset="0" stop-color="#fff"/><stop offset=".2" stop-color="#fff"/><stop offset=".332" stop-color="#fdfdfd"/><stop offset=".409" stop-color="#f4f5f5"/><stop offset=".472" stop-color="#e6e7e7"/><stop offset=".521" stop-color="#d5d6d6"/><stop offset=".592" stop-color="#bdbdbd"/><stop offset=".744" stop-color="#7f7f7e"/><stop offset=".835" stop-color="#565655"/><stop offset=".925" stop-color="#494948"/><stop offset="1" stop-color="#3a3a39"/></linearGradient><path clip-path="url(#ae)" fill="url(#af)" d="M188.4 186.8l58 34.2-37.3 63.4-58.1-34.2z"/></g></g><g clip-path="url(#aa)"><defs><path id="ag" d="M107.9 104.3h184.9v152.9H107.9z"/></defs><clipPath id="ah"><use xlink:href="#ag" overflow="visible"/></clipPath><g clip-path="url(#ah)"><defs><path id="ai" d="M111 104.3h-3.1l181.8 152.8c1.9-.4 3-1.8 3.1-3.1.1-1.5-.2-2.9-1.2-4.6-25.3-44.2-44.2-64.8-67.3-83.5-4-3.2-8-6.4-12.2-9.6-11.7-8.7-24.5-17-40-25.8-4.5-2.5-17-9.9-27.1-15.6-5.8-3.3-10.8-6-12.9-6.9-4-1.7-10.4-3.1-15.6-3.7-1.6-.2-3.3-.2-5-.3h-.5z"/></defs><clipPath id="aj"><use xlink:href="#ai" overflow="visible"/></clipPath><linearGradient id="ak" gradientUnits="userSpaceOnUse" x1="-1534.646" y1="3227.649" x2="-1533.646" y2="3227.649" gradientTransform="scale(28.517 -28.517) rotate(50.129 2693.723 3258.66)"><stop offset="0" stop-color="#fff"/><stop offset=".022" stop-color="#fff"/><stop offset=".209" stop-color="#fff"/><stop offset=".326" stop-color="#f7f7f7"/><stop offset=".5" stop-color="#e3e3e3"/><stop offset=".771" stop-color="#bcbcbc"/><stop offset=".945" stop-color="#a7a7a8"/><stop offset="1" stop-color="#a0a1a1"/></linearGradient><path clip-path="url(#aj)" fill="url(#ak)" d="M32.7 194.3l151.2-181 184.2 153.8-151.2 181.1z"/></g></g></g><g><defs><path id="al" d="M235.4 61c.3.2.6.3.9.5.5.3.9.6 1.3 1 1.2 1.1 1.5 2.3 1.5 2.5.6 3 2.2 7 6 11.3 3.3 3.8 10 9.3 11.4 10.3.9.6 1.8 1.2 2.5 2.1.4-2.3 1.1-4.8 2.2-7.2-.2.3-.3.6-.6 1-.3.5-1 1.1-2 1.1h-.1c-.9 0-1.5-.4-2-.7-3.6-2.7-13.9-10.7-15.3-17.4-.9-3.2.2-1.7-3-3.4-1-.4-1.9-.7-2.8-1.1z"/></defs><clipPath id="am"><use xlink:href="#al" overflow="visible"/></clipPath><linearGradient id="an" gradientUnits="userSpaceOnUse" x1="-1536.937" y1="3227.307" x2="-1535.937" y2="3227.307" gradientTransform="matrix(23.8 24.3472 24.3472 -23.8 -41760.32 114292.555)"><stop offset="0"/><stop offset=".026" stop-color="#030303"/><stop offset=".05" stop-color="#0e0e0e"/><stop offset=".072" stop-color="#202020"/><stop offset=".093" stop-color="#3a3a3a"/><stop offset=".115" stop-color="#5b5b5b"/><stop offset=".135" stop-color="#838383"/><stop offset=".155" stop-color="#b3b3b3"/><stop offset=".175" stop-color="#e9e9e9"/><stop offset=".179" stop-color="#f6f6f6"/><stop offset=".2" stop-color="#e6e6e6"/><stop offset=".267" stop-color="#b6b6b6"/><stop offset=".334" stop-color="#8e8e8e"/><stop offset=".4" stop-color="#70706f"/><stop offset=".463" stop-color="#5a5a59"/><stop offset=".524" stop-color="#4c4c4c"/><stop offset=".579" stop-color="#484847"/><stop offset=".693" stop-color="#454544"/><stop offset=".786" stop-color="#3b3b3a"/><stop offset=".872" stop-color="#2a2a29"/><stop offset=".953" stop-color="#121211"/><stop offset="1"/></linearGradient><path clip-path="url(#am)" fill="url(#an)" d="M248.6 48.1L275 75.2l-27 26.4-26.5-27.1z"/></g><g><defs><path id="ao" d="M257.5 135.3c-4.8 1.3-16.6 3.7-21.2 5.2-3.4 1.2-3.8 2.3-3.9 4 0 1.6.7 4 2.3 6.1 1.8 2.5 10.3 12.3 19.9 24.3 1.1 1.3 1.6 1.9 2.5 2.8-.3-.5-13.8-17.5-18-22.2-1.2-1.4-2.5-3.2-2.5-5.7 0-2.4 1.8-5.9 5.7-7.2 5.1-1.9 14.5-4.9 16.6-6.1 2.1-1.2 2.7-1.7 3-3.1-1.3.8-2.7 1.4-4.4 1.9"/></defs><clipPath id="ap"><use xlink:href="#ao" overflow="visible"/></clipPath><linearGradient id="aq" gradientUnits="userSpaceOnUse" x1="-1535.143" y1="3227.861" x2="-1534.143" y2="3227.861" gradientTransform="scale(32.403 -32.403) rotate(33.287 4643.19 4191.351)"><stop offset="0"/><stop offset=".026" stop-color="#030303"/><stop offset=".05" stop-color="#0e0e0e"/><stop offset=".072" stop-color="#202020"/><stop offset=".093" stop-color="#3a3a3a"/><stop offset=".115" stop-color="#5b5b5b"/><stop offset=".135" stop-color="#838383"/><stop offset=".155" stop-color="#b3b3b3"/><stop offset=".175" stop-color="#e9e9e9"/><stop offset=".179" stop-color="#f6f6f6"/><stop offset=".2" stop-color="#e6e6e6"/><stop offset=".267" stop-color="#b6b6b6"/><stop offset=".334" stop-color="#8e8e8e"/><stop offset=".4" stop-color="#70706f"/><stop offset=".463" stop-color="#5a5a59"/><stop offset=".524" stop-color="#4c4c4c"/><stop offset=".579" stop-color="#484847"/><stop offset=".693" stop-color="#454544"/><stop offset=".786" stop-color="#3b3b3a"/><stop offset=".872" stop-color="#2a2a29"/><stop offset=".953" stop-color="#121211"/><stop offset="1"/></linearGradient><path clip-path="url(#ap)" fill="url(#aq)" d="M212 146.7l40.8-26.8 29.2 44.4-40.9 26.8z"/></g><g><defs><path id="ar" d="M278.4 69.3c-9.1.2-15.3 8-17 15.2 1.9-6.5 7.7-14.1 17.1-14.1 11.9 0 16.8 4.5 18.5 11.2-2.1-9.2-10-12.3-17.8-12.3h-.8"/></defs><clipPath id="as"><use xlink:href="#ar" overflow="visible"/></clipPath><linearGradient id="at" gradientUnits="userSpaceOnUse" x1="-1535.969" y1="3227.802" x2="-1534.969" y2="3227.802" gradientTransform="matrix(35.572 0 0 -35.572 54898.836 114896.25)"><stop offset="0" stop-color="#6e6e6e"/><stop offset=".194" stop-color="#babbbb"/><stop offset=".286" stop-color="#d9dada"/><stop offset=".321" stop-color="#c1c2c2"/><stop offset=".383" stop-color="#9d9e9e"/><stop offset=".441" stop-color="#838383"/><stop offset=".492" stop-color="#747474"/><stop offset=".533" stop-color="#6e6e6e"/><stop offset=".671" stop-color="#4f4f4f"/><stop offset=".758" stop-color="#3a3a39"/><stop offset=".816" stop-color="#343433"/><stop offset=".894" stop-color="#232322"/><stop offset=".983" stop-color="#060606"/><stop offset="1"/></linearGradient><path clip-path="url(#as)" fill="url(#at)" d="M261.4 69.3H297v15.2h-35.6z"/></g><g><defs><path id="au" d="M192.6 246.8c-9.2 9.4-13.4 12.3-13.2 18.2.1 3.5.4 12 .4 13.2 0 .9.1 1.7-1.4 2.4-.7.4-2 .4-2.6.4-2.5 0-26.8-2.4-35.3-2.4-8.5 0-15.8.9-20.2 2-.7.2-2.6.1-3.3-1-.4-.6-.5-1.2-.6-1.7-.2 1.7-.3 3.6-.3 4.4 1.5-.3 5.1-.8 9.8-1.2 6-.5 12.7-.4 17.2-.4s37.9 1.7 38 1.7c-.2-2.6-.6-8.7-.6-12.5 0-1 0-1-.1-3.7 0-3 .6-6.5 3.5-9.6 1.6-1.7 7.7-8.5 14.2-15.8-2 2.5-3.9 4.4-5.5 6"/></defs><clipPath id="av"><use xlink:href="#au" overflow="visible"/></clipPath><linearGradient id="aw" gradientUnits="userSpaceOnUse" x1="-1535.883" y1="3227.038" x2="-1534.883" y2="3227.038" gradientTransform="matrix(82.023 0 0 -82.023 126093.953 264953.156)"><stop offset="0"/><stop offset=".031" stop-color="#040404"/><stop offset=".058" stop-color="#0e0e0f"/><stop offset=".085" stop-color="#212121"/><stop offset=".11" stop-color="#3a3a3b"/><stop offset=".136" stop-color="#5c5c5c"/><stop offset=".16" stop-color="#848485"/><stop offset=".179" stop-color="#a9a9aa"/><stop offset=".251" stop-color="#8a8a8b"/><stop offset=".336" stop-color="#6e6e6d"/><stop offset=".42" stop-color="#595958"/><stop offset=".502" stop-color="#4c4c4b"/><stop offset=".579" stop-color="#484847"/><stop offset=".693" stop-color="#454544"/><stop offset=".786" stop-color="#3b3b3a"/><stop offset=".872" stop-color="#2a2a29"/><stop offset=".953" stop-color="#121211"/><stop offset="1"/></linearGradient><path clip-path="url(#av)" fill="url(#aw)" d="M116.2 241.1h82v41.6h-82z"/></g><g><defs><path id="ax" d="M220.6 218.9c.9.1 1.8.7 2.5 1.3 1.7 1.6 24.2 17.9 28.7 21.1 1.9 1.4 3.7 2.3 5.5 2.9-1.5-1.1-3.8-2.8-6.7-5.1-4.3-3.3-9.8-7.7-15.3-12-4.7-3.7-9.3-7.4-13.3-10.7-.2 1.5-1.1 2.3-1.4 2.5"/></defs><clipPath id="ay"><use xlink:href="#ax" overflow="visible"/></clipPath><linearGradient id="az" gradientUnits="userSpaceOnUse" x1="-1535.964" y1="3227.762" x2="-1534.964" y2="3227.762" gradientTransform="matrix(36.6841 0 0 -36.6841 56566.031 118637.945)"><stop offset="0"/><stop offset=".031" stop-color="#040404"/><stop offset=".058" stop-color="#0e0e0f"/><stop offset=".085" stop-color="#212121"/><stop offset=".11" stop-color="#3a3a3b"/><stop offset=".136" stop-color="#5c5c5c"/><stop offset=".16" stop-color="#848485"/><stop offset=".179" stop-color="#a9a9aa"/><stop offset=".251" stop-color="#8a8a8b"/><stop offset=".336" stop-color="#6e6e6d"/><stop offset=".42" stop-color="#595958"/><stop offset=".502" stop-color="#4c4c4b"/><stop offset=".579" stop-color="#484847"/><stop offset=".693" stop-color="#454544"/><stop offset=".786" stop-color="#3b3b3a"/><stop offset=".872" stop-color="#2a2a29"/><stop offset=".953" stop-color="#121211"/><stop offset="1"/></linearGradient><path clip-path="url(#ay)" fill="url(#az)" d="M220.6 216.5h36.7v27.8h-36.7z"/></g><g><defs><path id="aA" d="M274.5 195.5c-.2.6-.5 1.4-.5 2.5 0 1.4.5 3.3 2.2 5.9 1.1 1.5 2.1 3 3.1 4.5 15.6 23 26.5 45.3 30.7 55.7.9 2.5.7 3.8-.1 4.9 0 0-8.1 8.3-9.1 9.9-.4.6-.7 1.2-1.3 1.6-.6.5-2 .8-3.4.7-12-1.1-25.1-1.6-31.6-1.6-8.5 0-13.5.8-16.3.9-1.5 0-2.6-.3-2.8-.6 0 0 0-.1-.1-.1-.1 1.2-.2 2.1-.2 2.5 5.2-.9 12.1-1.3 19.8-1.3 2.5 0 5 0 7.6.1 12.7.4 27.5 1.6 27.5 1.6s7.1-9 11.4-12.6c.8-.6 1.1-.6 1.1-1.2 0-.4-.2-1.2-.6-2.2-4.5-13-21.9-45.1-35.3-63-1.3-1.7-2.1-4-2.1-5.6 0-2.1 1.1-3.6 2.2-4.4.9-.8 3.2-2.7 6.2-5.7-4.7 3.5-8 6.3-8.4 7.5"/></defs><clipPath id="aB"><use xlink:href="#aA" overflow="visible"/></clipPath><linearGradient id="aC" gradientUnits="userSpaceOnUse" x1="-1535.898" y1="3227.165" x2="-1534.898" y2="3227.165" gradientTransform="matrix(67.3825 0 0 -67.3825 103737.766 217689.797)"><stop offset="0"/><stop offset=".031" stop-color="#040404"/><stop offset=".058" stop-color="#0e0e0f"/><stop offset=".085" stop-color="#212121"/><stop offset=".11" stop-color="#3a3a3b"/><stop offset=".136" stop-color="#5c5c5c"/><stop offset=".16" stop-color="#848485"/><stop offset=".179" stop-color="#a9a9aa"/><stop offset=".251" stop-color="#8a8a8b"/><stop offset=".336" stop-color="#6e6e6d"/><stop offset=".42" stop-color="#595958"/><stop offset=".502" stop-color="#4c4c4b"/><stop offset=".579" stop-color="#484847"/><stop offset=".693" stop-color="#454544"/><stop offset=".786" stop-color="#3b3b3a"/><stop offset=".872" stop-color="#2a2a29"/><stop offset=".953" stop-color="#121211"/><stop offset="1"/></linearGradient><path clip-path="url(#aB)" fill="url(#aC)" d="M245.1 188h67.4v94.7h-67.4z"/></g><g><defs><path id="aD" d="M121.5 163.5c-5.1.4-7.6 1-8.1 1.1-.5.1-.8.1-.8.1.1.2.3.6.4.7.1 0 .3-.1.7-.2 3.1-.9 10-1.3 18.5-1.3 8.2 0 17.1.1 21.7.3 4.1.2 10 .8 14.7 3.3 4.3 2.4 13.8 8.9 14.2 8.5-3.8-2.7-7.9-5.4-11.5-7.7-4.8-3-9.4-5.1-10.8-5.1-14.7-.2-14.7-.2-23.3-.2-6.7 0-13.1.3-15.7.5"/></defs><clipPath id="aE"><use xlink:href="#aD" overflow="visible"/></clipPath><linearGradient id="aF" gradientUnits="userSpaceOnUse" x1="-1535.895" y1="3227.133" x2="-1534.895" y2="3227.133" gradientTransform="matrix(70.2385 0 0 -70.2385 107991.484 226838.64)"><stop offset="0" stop-color="#868786"/><stop offset=".058" stop-color="#888989"/><stop offset=".093" stop-color="#919291"/><stop offset=".122" stop-color="#9fa09f"/><stop offset=".147" stop-color="#b3b4b3"/><stop offset=".17" stop-color="#cdcecd"/><stop offset=".179" stop-color="#d9dada"/><stop offset=".286" stop-color="#b3b3b3"/><stop offset=".475" stop-color="#747474"/><stop offset=".649" stop-color="#424242"/><stop offset=".799" stop-color="#1e1e1e"/><stop offset=".921" stop-color="#080808"/><stop offset="1"/></linearGradient><path clip-path="url(#aE)" fill="url(#aF)" d="M112.6 163h70.2v13.4h-70.2z"/></g><g><defs><path id="aG" d="M114.1 119.1c0 .2.1 2.4.9 2.4h1c1.4 0 3.8-.1 5.9 1 3.7 1.8 13.2 8.9 14.7 10.4 1.8 2.1 3.6 1.9 2 .5-5.6-5.2-14-11.1-18-11.9-1.4-.3-3.4-.5-4.9-.6-1.3-.1-1.2-1.5-1.6-1.8z"/></defs><clipPath id="aH"><use xlink:href="#aG" overflow="visible"/></clipPath><linearGradient id="aI" gradientUnits="userSpaceOnUse" x1="-1536.032" y1="3228.363" x2="-1535.032" y2="3228.363" gradientTransform="matrix(24.9963 0 0 -24.9963 38509.316 80824.297)"><stop offset="0" stop-color="#484847"/><stop offset=".046" stop-color="#4b4b4a"/><stop offset=".075" stop-color="#535352"/><stop offset=".1" stop-color="#626261"/><stop offset=".122" stop-color="#767776"/><stop offset=".142" stop-color="#919291"/><stop offset=".161" stop-color="#b1b2b2"/><stop offset=".179" stop-color="#d7d8d8"/><stop offset=".179" stop-color="#d9dada"/><stop offset=".286" stop-color="#b3b3b3"/><stop offset=".475" stop-color="#747474"/><stop offset=".649" stop-color="#424242"/><stop offset=".799" stop-color="#1e1e1e"/><stop offset=".921" stop-color="#080808"/><stop offset="1"/></linearGradient><path clip-path="url(#aH)" fill="url(#aI)" d="M114.1 119.1h26v15.8h-26z"/></g><g><defs><path id="aJ" d="M106.3 160.5c-2.6.1-9.3 3.4-10.3 4-1.5.9-2.2.9-3.2-.2.4 1.1 1.2 1.7 1.9 1.5.7-.2 8.7-4.4 12.2-4.4 1.2 0 1.5 0 2.4.4-.5-.9-1.1-1.4-2.8-1.4-.1.1-.2.1-.2.1"/></defs><clipPath id="aK"><use xlink:href="#aJ" overflow="visible"/></clipPath><linearGradient id="aL" gradientUnits="userSpaceOnUse" x1="-1536.143" y1="3229.366" x2="-1535.143" y2="3229.366" gradientTransform="matrix(16.4528 0 0 -16.4528 25366.59 53295.34)"><stop offset="0" stop-color="#868786"/><stop offset=".063" stop-color="#888989"/><stop offset=".102" stop-color="#919291"/><stop offset=".133" stop-color="#9fa09f"/><stop offset=".16" stop-color="#b3b4b3"/><stop offset=".179" stop-color="#c5c6c6"/><stop offset=".246" stop-color="#b3b4b4"/><stop offset=".405" stop-color="#8d8d8d"/><stop offset=".562" stop-color="#6f6f6e"/><stop offset=".716" stop-color="#595959"/><stop offset=".864" stop-color="#4c4c4b"/><stop offset="1" stop-color="#484847"/></linearGradient><path clip-path="url(#aK)" fill="url(#aL)" d="M92.8 160.5h16.5v5.6H92.8z"/></g><g><defs><path id="aM" d="M184.1 60.4c-1.8.3-7.6 1.8-8.2 2.1-.6.2-1 .4-1.4 1.1-.4.7-.6 2.1-.4 2.6.2.6.8 1 1.6.6 1.2-.5 8.4-3.1 9.7-3.5.5-.2.8-.5.9-.7.2-.5.2-1.1.2-1.6-.1-.6-.4-.7-.9-.7-.4-.1-.9 0-1.5.1"/></defs><clipPath id="aN"><use xlink:href="#aM" overflow="visible"/></clipPath><linearGradient id="aO" gradientUnits="userSpaceOnUse" x1="-1546.346" y1="3229.862" x2="-1545.346" y2="3229.862" gradientTransform="matrix(1.806 3.9732 3.9732 -1.806 -9861.046 12038.553)"><stop offset="0" stop-color="#fff"/><stop offset=".115" stop-color="#f0f0f0"/><stop offset=".273" stop-color="#d9d9d9"/><stop offset=".604" stop-color="#9d9d9d"/><stop offset=".907" stop-color="#626261"/><stop offset="1" stop-color="#626261"/></linearGradient><path clip-path="url(#aN)" fill="url(#aO)" d="M184.4 55.5l4.8 10.5-13.1 5.9-4.8-10.5z"/></g><g><defs><path id="aP" d="M22.4 48h382v448.3h-382z"/></defs><clipPath id="aQ"><use xlink:href="#aP" overflow="visible"/></clipPath><path d="M183.9 61c.8-.1 1.2-.1 1.2.4v.9c0 .2-.1.4-.5.5-.8.3-6.1 2.2-7.3 2.7-1.2.5-1.7.2-1.8-.3-.1-.5.1-1.3.3-1.6.2-.3.5-.6.9-.7.9-.4 5.7-1.6 7.2-1.9" clip-path="url(#aQ)"/></g><g><defs><path id="aR" d="M191.7 68.6c-14.8.4-27.8 6.7-35 9.6 5.2-1.8 17.8-6.9 31.8-7.8 7.7-.5 10.8.2 13.6 3.4 4.1 4.5 13.7 17.3 17 23.9 1.3 2.6 1.9 4.9 1.8 6.9-.3 3-1.3 5.2-2.2 7.2-1.5 3.4-6.9 14.5-7.9 16.1-4 6.9-7.8 6.7-11.8 5.7.2.1 2.1 1 3.8 1.7 4.7 1.9 7.7-.8 10.4-5.8.9-1.6 6.7-13.8 8.1-17.4.9-2.2 1.9-4.4 1.9-7.2 0-1.9-.5-4.7-1.8-7.3-3.2-6.7-13.3-19.5-17.3-24.3-3.1-3.7-6-4.5-10.9-4.5-.5-.2-1-.2-1.5-.2"/></defs><clipPath id="aS"><use xlink:href="#aR" overflow="visible"/></clipPath><linearGradient id="aT" gradientUnits="userSpaceOnUse" x1="-1535.899" y1="3227.165" x2="-1534.899" y2="3227.165" gradientTransform="matrix(66.4652 0 0 -66.4652 102240.477 214596.922)"><stop offset="0" stop-color="#fff"/><stop offset=".687" stop-color="#fff"/><stop offset=".734" stop-color="#fcfcfc"/><stop offset=".773" stop-color="#f2f2f2"/><stop offset=".808" stop-color="#e1e1e1"/><stop offset=".841" stop-color="#c9c9c9"/><stop offset=".872" stop-color="#aaa"/><stop offset=".903" stop-color="#848484"/><stop offset=".933" stop-color="#585858"/><stop offset=".961" stop-color="#252525"/><stop offset=".98"/><stop offset="1"/></linearGradient><path clip-path="url(#aS)" fill="url(#aT)" d="M156.7 68.6h66.5v68.6h-66.5z"/></g><g><defs><path id="aU" d="M174.2 207.8c-5.3 8.4-12.9 20.9-14 23.6-1.1 2.5-1.5 4.8-1.5 7.8 0 0 .4 13.5.4 13.6 0 1.7-.2 3-1.1 4.1-.9 1-2.3 1.6-4.2 1.8-3.1.5-17.9 2.7-21.9 3.6-3.9.8-5.6 2.7-6.4 5.3-.6 1.9-1.4 5.1-1.4 6.5v.8c-.1 1.5.4 1.4.4 1.4s17.1-1.3 27.2-.7c10.2.6 24.2 1.9 24.2 1.9s-14.8-2.8-24.8-3.4c-5-.3-10.8-.2-15.4-.1s-8 .2-8.1-.1c-.1-.4-.3-1.1-.2-2.3.2-.8.4-1.7.7-2.7.7-2.5 1.8-4.7 5.7-5.6 3.7-.9 18.1-3.3 20.8-4 2.7-.7 4.4-1.7 4.8-3.9.1-.7.2-2.2.2-3.6 0-2.9-.5-10.5-.5-11 .1-4.7.3-7.2 3.4-12.3 4.8-7.9 22.7-35.2 31.6-44.6.6-.6.8-1.1 1.8-.9-.2 0-.4-.1-.6-.2-.2-.1-.9-.6-1.8-1.3-2.3 2.7-12.3 15.2-19.3 26.3"/></defs><clipPath id="aV"><use xlink:href="#aU" overflow="visible"/></clipPath><linearGradient id="aW" gradientUnits="userSpaceOnUse" x1="-1535.324" y1="3226.684" x2="-1534.324" y2="3226.684" gradientTransform="scale(90.558 -90.558) rotate(74.211 1367.889 2627.79)"><stop offset="0" stop-color="#ececed"/><stop offset=".013" stop-color="#d5d5d6"/><stop offset=".042" stop-color="#9a9a9a"/><stop offset=".066" stop-color="#626261"/><stop offset=".135" stop-color="#737372"/><stop offset=".274" stop-color="#919191"/><stop offset=".352" stop-color="#9c9c9c"/><stop offset=".503" stop-color="#b4b5b5"/><stop offset=".604" stop-color="#bfc0c0"/><stop offset=".836" stop-color="#8f908f"/><stop offset=".959" stop-color="#7a7b7a"/><stop offset=".976" stop-color="#979898"/><stop offset="1" stop-color="#bbbcbc"/></linearGradient><path clip-path="url(#aV)" fill="url(#aW)" d="M98.9 270.4l30.4-107.5 91.6 25.9-30.4 107.6z"/></g><g><defs><path id="aX" d="M22.4 48h382v448.3h-382z"/></defs><clipPath id="aY"><use xlink:href="#aX" overflow="visible"/></clipPath><path d="M22.4 339.4v32.3h8.9v-9.9h8c17.1 0 25.8-5.5 25.8-11.5 0-6.5-9.3-10.8-25-10.8H22.4zm8.9 18.9V343h7c7.2 0 16.8 1.2 16.8 7.2 0 4.1-3.1 8.1-17.9 8.1h-5.9zM115.7 371.7v-4.1H93.8c-4.7 0-6.1-2.1-6.1-5.7v-4.7h25.7v-4.1H87.8v-9.7h26.9v-4.1H78.9V362c0 6.1 2.5 9.6 10.7 9.6h26.1zM172.6 339.4h-8.9v27.2c-2.5.8-5.7 1.6-10.5 1.6-6.8 0-13.6-1.7-13.6-7.7v-21.1h-8.9v21.8c0 8.9 8.9 11.5 18.7 11.5 9.3 0 16.9-1.9 23.2-4.6v-28.7zM197.3 355.7c0-9 7.6-13.2 16.9-13.2 7.6 0 13.5 2.2 19 4.1v-5.4c-5.9-1.7-11.4-2.7-19-2.7-14.9 0-27 6.8-27 17.2 0 11 12.1 17.1 27 17.1 7.4 0 15.2-1.5 20-2.8v-12.8h-8.8v9.6c-3.2 1.1-5.5 1.9-10.6 1.9-10 0-17.5-5-17.5-13M287.3 371.7v-4.1h-21.9c-4.7 0-6.1-2.1-6.1-5.7v-4.7H285v-4.1h-25.7v-9.7h26.9v-4.1h-35.8V362c0 6.1 2.5 9.6 10.7 9.6h26.2zM325.8 338.4c-14.9 0-27.1 7-27.1 17.4 0 10.9 12.2 16.9 27.1 16.9 14.9 0 27-6 27-16.9 0-10.4-12.1-17.4-27-17.4m0 30.7c-10.1 0-16.9-5.2-16.9-13.3 0-8.9 7.6-13.3 16.9-13.3 9.3 0 16.9 4.5 16.9 13.3 0 8.1-6.8 13.3-16.9 13.3M360.1 344h17.8v27.7h8.8V344h17.8v-4.6h-44.4z" clip-path="url(#aY)" fill="#002052"/><path d="M73.1 415.8c1.3 1.6 3.5 5.2 3.5 10.6 0 10.3-6.7 17.6-19.8 17.6-13.1 0-20-7.1-20-17.2 0-11.1 8-16.8 18.6-17.2 6.4-.4 13.7 1.3 17.7 6.2m-27.9 11.1c0 3.9 1.5 6 2.1 6.8.8 1.1 3.2 4.4 9.4 4.4 7.6 0 11.6-5.1 11.6-11.4 0-7.2-5.5-11.7-11.9-11.5-5.4.3-11.2 3.9-11.2 11.7M121.7 431.9c-.6 2-1.3 4.4-4.2 7-2.6 2.4-6.9 5.1-15.2 5.1-11.5 0-19.5-6-19.5-17.3 0-12.2 9.7-17.1 19.9-17.1 3.7 0 14.4.8 18.6 10.1l-8.9 1.1c-.9-1.4-3.4-5.2-9.7-5.2-7.3 0-11.5 5.1-11.5 11.3 0 7.1 5.5 11.3 11.7 11.3 7 0 9.2-4.1 10.2-6.1l8.6-.2zM164.9 431.9c-.6 2-1.3 4.4-4.2 7-2.6 2.4-6.9 5.1-15.2 5.1-11.5 0-19.5-6-19.5-17.3 0-12.2 9.7-17.1 19.9-17.1 3.7 0 14.4.8 18.6 10.1l-8.9 1.1c-.9-1.4-3.4-5.2-9.7-5.2-7.3 0-11.5 5.1-11.5 11.3 0 7.1 5.5 11.3 11.7 11.3 7 0 9.2-4.1 10.2-6.1l8.6-.2zM181.1 410.5h8.8l15.6 32.4h-9.1l-2.8-6.1H177l-2.8 6.1h-8.8l15.7-32.4zm5.1 10c-.2-.4-.4-.9-.6-1.3-.1-.4-.2-.8-.3-1.3-.1.4-.2.8-.3 1.1-.2.4-.3.8-.5 1.2l-4.9 10.8H191l-4.8-10.5zM215 432.8c1.8 3.9 6.5 5.1 10.9 5.1 2 0 8.2-.3 8.2-4.3 0-2.3-2.2-2.9-4-3.2-1.3-.3-8-1.3-9.5-1.6-3-.5-10.5-2-10.5-9.3 0-1.6.5-3.3 1.3-4.6 2.7-4.4 8.7-5.5 13.8-5.5 4.7 0 8.3.7 11.7 2.5 3.3 1.8 4.7 4.2 5.4 5.2l-7.7 1.9c-.3-.5-.9-1.7-2.8-2.7-2.2-1.1-5-1.2-6.5-1.2-3.6 0-7.2.7-7.2 3.8 0 2.1 1.9 2.7 4.3 3.2 1.3.3 7.9 1.4 9.4 1.7 3.8.7 10.1 2.1 10.1 9.2 0 10.4-12.4 10.8-16.5 10.8-5.3 0-13.5-.9-17.7-9.1l7.3-1.9zM249.6 410.5h8.1v32.4h-8.1zM301.7 415.8c1.3 1.6 3.5 5.2 3.5 10.6 0 10.3-6.7 17.6-19.8 17.6-13.1 0-20-7.1-20-17.2 0-11.1 8-16.8 18.6-17.2 6.4-.4 13.6 1.3 17.7 6.2m-28 11.1c0 3.9 1.5 6 2.1 6.8.8 1.1 3.2 4.4 9.4 4.4 7.6 0 11.6-5.1 11.6-11.4 0-7.2-5.5-11.7-11.9-11.5-5.4.3-11.2 3.9-11.2 11.7M312.9 410.5h8.1l15.9 18c1.9 2.2 2.3 2.7 4.3 5.2-.3-3.1-.3-3.9-.3-6.7v-16.6h7.8v32.4h-8l-16-18.2c-1.7-2-2.4-2.8-4.2-5.1.2 2.5.2 3 .3 5.5v17.8h-7.7v-32.3zM362.9 432.8c1.8 3.9 6.5 5.1 10.9 5.1 2 0 8.2-.3 8.2-4.3 0-2.3-2.2-2.9-4-3.2-1.3-.3-8-1.3-9.5-1.6-3-.5-10.5-2-10.5-9.3 0-1.6.5-3.3 1.3-4.6 2.7-4.4 8.7-5.5 13.8-5.5 4.7 0 8.3.7 11.7 2.5 3.3 1.8 4.7 4.2 5.4 5.2l-7.7 1.9c-.3-.5-.9-1.7-2.8-2.7-2.2-1.1-5-1.2-6.5-1.2-3.6 0-7.2.7-7.2 3.8 0 2.1 1.9 2.7 4.3 3.2 1.3.3 7.9 1.4 9.4 1.7 3.8.7 10.1 2.1 10.1 9.2 0 10.4-12.4 10.8-16.5 10.8-5.3 0-13.5-.9-17.7-9.1l7.3-1.9zM95.4 462.8h17.7c1.2 0 2.4 0 3.6.2 9.4.9 14.1 7.5 14.1 15.8 0 3.7-.9 7.4-3.2 10.4-4.5 5.9-10.6 6-15.5 6H95.4v-32.4zm8 5.8v20.9h8.9c2.9 0 6.2-.1 8.3-3.2 1-1.3 2-3.6 2-7.7 0-3.1-.7-5.2-1.6-6.6-2.1-3.3-5.5-3.4-8.3-3.4h-9.3zM138.5 462.8h8.1v19c0 2.9.6 5.3 3.7 6.8 2.6 1.2 5 1.1 7.3 1.1 3.1-.3 5-1.1 6.3-2.6.8-.9 1.5-2 1.4-5.2v-19.1h8.1v18.8c0 3.4 0 6.7-2.8 9.7-3.3 3.7-9.6 5-14.5 5-2.3 0-4.6-.2-6.8-.8-1.6-.4-3.6-1-5.6-2.3-5.1-3.4-5.1-7.7-5.1-11.6v-18.8zM200.2 462.8h8.1v26.4h17.9v6h-26zM231.9 462.8h8.1v32.4h-8.1zM284 468.1c1.3 1.6 3.5 5.2 3.5 10.6 0 10.3-6.7 17.6-19.8 17.6-13.1 0-20-7.1-20-17.2 0-11.1 8-16.8 18.6-17.2 6.4-.3 13.6 1.3 17.7 6.2m-27.9 11.2c0 3.9 1.5 6 2.1 6.8.8 1.1 3.2 4.4 9.4 4.4 7.6 0 11.6-5.1 11.6-11.4 0-7.2-5.5-11.7-11.9-11.5-5.5.2-11.2 3.8-11.2 11.7M295.3 462.8h8.1l15.9 18c1.9 2.2 2.3 2.7 4.3 5.2-.3-3.1-.3-3.9-.3-6.7v-16.6h7.8v32.4h-8l-16-18.2c-1.7-2-2.4-2.8-4.2-5.1.2 2.5.2 3 .3 5.5v17.8h-7.7v-32.3z" clip-path="url(#aY)" fill="#6e6e6e"/></g></svg>